<svg width="105" height="70" viewBox="0 0 105 70" fill="none" xmlns="http://www.w3.org/2000/svg">
<g clip-path="url(#clip0_207_3972)">
<path d="M9.29447 61.149L11.7485 61.9271C11.3723 63.2951 10.7452 64.3127 9.86736 64.9796C8.99519 65.6409 7.88644 65.9715 6.54115 65.9715C4.87663 65.9715 3.50853 65.4044 2.43686 64.27C1.36519 63.1299 0.829346 61.5736 0.829346 59.6013C0.829346 57.515 1.36803 55.8961 2.44541 54.7446C3.52278 53.5874 4.93934 53.0088 6.69506 53.0088C8.22847 53.0088 9.47405 53.462 10.4317 54.3683C11.0017 54.9042 11.4292 55.6737 11.7143 56.677L9.20893 57.2755C9.0607 56.6257 8.75002 56.1126 8.27692 55.7365C7.80949 55.3602 7.23945 55.1721 6.5668 55.1721C5.63764 55.1721 4.88233 55.5056 4.30089 56.1725C3.72515 56.8395 3.43728 57.9197 3.43728 59.4132C3.43728 60.9979 3.7223 62.1266 4.29234 62.7992C4.86239 63.4719 5.60344 63.8082 6.5155 63.8082C7.18815 63.8082 7.76674 63.5944 8.25127 63.1669C8.7358 62.7394 9.08356 62.0667 9.29447 61.149Z" fill="#00A651"/>
<path d="M23.4009 59.4477L21.2205 59.0544C21.4656 58.1766 21.8874 57.5267 22.486 57.1049C23.0845 56.6831 23.9738 56.4722 25.1537 56.4722C26.2254 56.4722 27.0235 56.6004 27.548 56.8569C28.0724 57.1077 28.4401 57.4298 28.651 57.8231C28.8676 58.2108 28.9759 58.9262 28.9759 59.9693L28.9502 62.774C28.9502 63.572 28.9873 64.162 29.0614 64.5439C29.1412 64.9201 29.2866 65.3249 29.4975 65.7581H27.1204C27.0577 65.5985 26.9807 65.3619 26.8895 65.0484C26.8496 64.9059 26.8211 64.8118 26.8041 64.7663C26.3936 65.1653 25.9547 65.4645 25.4873 65.664C25.0198 65.8636 24.521 65.9633 23.9909 65.9633C23.056 65.9633 22.3178 65.7097 21.7763 65.2023C21.2405 64.695 20.9725 64.0537 20.9725 63.2785C20.9725 62.7654 21.0951 62.3094 21.3402 61.9104C21.5853 61.5056 21.9273 61.1978 22.3663 60.9869C22.8109 60.7703 23.4494 60.5821 24.2816 60.4225C25.4046 60.2116 26.1827 60.015 26.6159 59.8326V59.5932C26.6159 59.1314 26.502 58.8036 26.2739 58.6098C26.0459 58.4103 25.6155 58.3105 24.9827 58.3105C24.5553 58.3105 24.2218 58.3961 23.9824 58.5671C23.7429 58.7324 23.5491 59.0259 23.4009 59.4477ZM26.6159 61.3973C26.3081 61.4999 25.8207 61.6225 25.1537 61.765C24.4868 61.9075 24.0507 62.0471 23.8455 62.184C23.532 62.4063 23.3752 62.6884 23.3752 63.0305C23.3752 63.3668 23.5007 63.6576 23.7515 63.9026C24.0023 64.1477 24.3215 64.2703 24.7091 64.2703C25.1424 64.2703 25.5556 64.1278 25.949 63.8428C26.2397 63.6261 26.4307 63.3611 26.5219 63.0476C26.5846 62.8423 26.6159 62.4518 26.6159 61.8761V61.3973Z" fill="#00A651"/>
<path d="M39.3285 56.6773H41.5687V58.0113C41.8595 57.5553 42.2529 57.1847 42.7488 56.8997C43.2447 56.6147 43.7948 56.4722 44.399 56.4722C45.4536 56.4722 46.3486 56.8854 47.0839 57.712C47.8193 58.5386 48.187 59.69 48.187 61.1664C48.187 62.6827 47.8164 63.8627 47.0754 64.7064C46.3343 65.5443 45.4365 65.9633 44.382 65.9633C43.8803 65.9633 43.4242 65.8636 43.0138 65.664C42.6091 65.4645 42.1816 65.1225 41.7313 64.638V69.2126H39.3285V56.6773ZM41.7056 61.0638C41.7056 62.0842 41.9079 62.8395 42.3127 63.3298C42.7174 63.8143 43.2105 64.0565 43.7919 64.0565C44.3506 64.0565 44.8152 63.8342 45.1857 63.3896C45.5562 62.9393 45.7415 62.2039 45.7415 61.1835C45.7415 60.2315 45.5505 59.5247 45.1686 59.063C44.7867 58.6013 44.3135 58.3704 43.7492 58.3704C43.162 58.3704 42.6747 58.5984 42.287 59.0544C41.8994 59.5048 41.7056 60.1746 41.7056 61.0638Z" fill="#00A651"/>
<path d="M57.8022 55.4459V53.2227H60.205V55.4459H57.8022ZM57.8022 65.7579V56.6771H60.205V65.7579H57.8022Z" fill="#00A651"/>
<path d="M74.8898 56.6767V58.592H73.2481V62.2517C73.2481 62.9927 73.2624 63.426 73.2909 63.5514C73.3251 63.6711 73.3963 63.7709 73.5046 63.8507C73.6186 63.9305 73.7554 63.9704 73.9151 63.9704C74.1374 63.9704 74.4594 63.8934 74.8813 63.7395L75.0864 65.6035C74.5279 65.8429 73.8951 65.9626 73.1882 65.9626C72.755 65.9626 72.3645 65.8914 72.0168 65.7489C71.6691 65.6007 71.4125 65.4125 71.2472 65.1846C71.0876 64.9508 70.9765 64.6373 70.9138 64.244C70.8625 63.9646 70.8368 63.4003 70.8368 62.5509V58.592H69.7338V56.6767H70.8368V54.8725L73.2481 53.4702V56.6767H74.8898Z" fill="#00A651"/>
<path d="M86.4084 59.4475L84.2277 59.0542C84.473 58.1764 84.8945 57.5265 85.493 57.1047C86.0916 56.6828 86.9812 56.4719 88.1609 56.4719C89.2325 56.4719 90.0306 56.6002 90.5552 56.8567C91.0797 57.1075 91.4472 57.4296 91.6584 57.8229C91.8745 58.2105 91.9834 58.9259 91.9834 59.9691L91.9577 62.7737C91.9577 63.5718 91.9942 64.1618 92.0691 64.5437C92.1489 64.9199 92.2935 65.3247 92.5047 65.7579H90.1278C90.0647 65.5983 89.9882 65.3617 89.8967 65.0482C89.8568 64.9057 89.8286 64.8116 89.8111 64.766C89.4012 65.1651 88.9623 65.4643 88.4942 65.6638C88.027 65.8633 87.5282 65.9631 86.9978 65.9631C86.0634 65.9631 85.3251 65.7094 84.7839 65.202C84.2477 64.6948 83.98 64.0535 83.98 63.2782C83.98 62.7652 84.1022 62.3091 84.3474 61.9101C84.5927 61.5054 84.9344 61.1976 85.3733 60.9867C85.8181 60.77 86.4566 60.5819 87.2888 60.4223C88.4119 60.2113 89.1901 60.0147 89.6232 59.8323V59.5929C89.6232 59.1312 89.5093 58.8034 89.2815 58.6096C89.0529 58.4101 88.6231 58.3103 87.9904 58.3103C87.5623 58.3103 87.2289 58.3958 86.9895 58.5668C86.7501 58.7321 86.5563 59.0257 86.4084 59.4475ZM89.6232 61.397C89.3156 61.4997 88.8276 61.6222 88.1609 61.7647C87.4941 61.9072 87.0577 62.0469 86.8531 62.1837C86.5389 62.406 86.3826 62.6882 86.3826 63.0302C86.3826 63.3666 86.5081 63.6573 86.7584 63.9024C87.0094 64.1475 87.3287 64.2701 87.7161 64.2701C88.1501 64.2701 88.5632 64.1275 88.9565 63.8425C89.2466 63.6259 89.4378 63.3609 89.5293 63.0473C89.5916 62.8421 89.6232 62.4516 89.6232 61.8759V61.397ZM94.3603 65.7579V53.2227H96.7629V65.7579H94.3603Z" fill="#00A651"/>
<path d="M52.0843 12.1045V32.1983C52.0843 33.1244 51.7164 34.0125 51.0616 34.6673C50.4068 35.3221 49.5187 35.69 48.5926 35.69H47.0455C46.6425 35.69 46.2436 35.6106 45.8714 35.4564C45.4991 35.3022 45.1609 35.0762 44.876 34.7912C44.5912 34.5063 44.3652 34.168 44.2111 33.7957C44.0569 33.4234 43.9777 33.0245 43.9778 32.6215V9.06591H26.2026H25.9017C21.7449 9.06591 18.3787 12.319 18.3787 16.3295V35.6252H12.5659C12.2226 35.6253 11.8826 35.5578 11.5654 35.4265C11.2482 35.2951 10.96 35.1027 10.7171 34.8599C10.4744 34.6172 10.2818 34.329 10.1503 34.0119C10.019 33.6947 9.9513 33.3547 9.9513 33.0114V16.4026H18.0986V9.06591H9.9513V4.48017L1.31104 0V35.4406C1.31104 39.3721 4.61733 42.557 8.69429 42.557H26.9109V19.1694C26.9109 18.7528 26.993 18.3403 27.1524 17.9554C27.3119 17.5706 27.5456 17.2209 27.8401 16.9264C28.1348 16.6319 28.4845 16.3983 28.8694 16.2389C29.2543 16.0796 29.6668 15.9977 30.0834 15.9977H34.9119V34.7373C34.9119 38.8716 38.3329 42.2552 42.6659 42.5362C42.858 42.5487 43.0508 42.557 43.2479 42.557H43.9786V42.5387L52.3819 42.5578C52.445 42.5571 52.5075 42.5467 52.5673 42.5271C56.9536 42.1721 60.4053 38.3903 60.4053 33.7804V9.06591L52.0843 12.1045Z" fill="#032659"/>
<path d="M88.4952 28.6301C88.1627 25.0478 84.1331 22.2336 79.298 22.2336H71.8873C71.0604 22.2336 70.2675 21.9052 69.6828 21.3205C69.0982 20.7359 68.7697 19.9429 68.7697 19.116C68.7697 18.2892 69.0982 17.4962 69.6828 16.9116C70.2675 16.3269 71.0604 15.9985 71.8873 15.9985H77.1497L78.5979 14.7406L85.1 9.0708H70.2129C65.5515 9.0708 61.7713 11.9473 61.7713 15.4938V15.7848V22.7133H61.7963C61.9167 24.6306 62.7631 26.43 64.1631 27.7454C65.563 29.0609 67.4115 29.7937 69.3325 29.7948H78.7268C79.5087 29.7948 80.2585 30.1054 80.8113 30.6582C81.3642 31.2111 81.6748 31.961 81.6748 32.7428C81.6748 33.5247 81.3642 34.2745 80.8113 34.8273C80.2585 35.3802 79.5087 35.6907 78.7268 35.6907H58.8234V42.5577H80.5558C84.528 42.5577 87.9083 39.5798 88.4952 35.6907V29.7948C88.4952 29.5279 88.4952 29.3508 88.4952 29.1297C88.4952 28.9634 88.511 28.7972 88.4952 28.6309" fill="#032659"/>
<path d="M96.3406 4.49204L96.3647 9.3488H93.1415L89.585 16.2823H96.4021L96.4852 33.1829C96.4869 33.5486 96.4171 33.9111 96.2782 34.2495C96.1394 34.588 95.9349 34.8956 95.6772 35.1549C95.4194 35.4142 95.1127 35.6199 94.7752 35.7602C94.4368 35.9007 94.0751 35.9729 93.7094 35.9729H87.7535V42.8399H96.437C97.5527 42.8399 98.6576 42.6202 99.6876 42.1933C100.718 41.7664 101.655 41.1407 102.444 40.3518C103.233 39.563 103.859 38.6266 104.285 37.596C104.712 36.5653 104.932 35.4607 104.932 34.3451V0.197266L96.3406 4.49204Z" fill="#032659"/>
<path d="M76.063 19.5663L94.5199 3.3208L85.2918 20.6246L83.3689 17.0672L76.063 19.5663Z" fill="#00A651"/>
</g>
<defs>
<clipPath id="clip0_207_3972">
<rect width="105" height="69.7506" fill="white"/>
</clipPath>
</defs>
</svg>
