<svg width="85" height="52" viewBox="0 0 85 52" fill="none" xmlns="http://www.w3.org/2000/svg">
<g clip-path="url(#clip0_2173_8476)">
<path d="M5.39079 46.8788L6.95193 47.3741C6.77968 48.1366 6.35791 48.8198 5.75343 49.3156C5.13699 49.7555 4.39177 49.978 3.63504 49.948C3.14817 49.9626 2.66374 49.8736 2.21389 49.6868C1.76404 49.5 1.35904 49.2197 1.02576 48.8645C0.307044 48.0468 -0.0614608 46.9794 -0.000268067 45.8925C-0.0707996 44.7661 0.298623 43.6562 1.03018 42.7968C1.37638 42.4316 1.79648 42.1445 2.26245 41.9546C2.72842 41.7647 3.22953 41.6764 3.73234 41.6956C4.6112 41.6642 5.46669 41.9822 6.11166 42.5801C6.5122 42.9864 6.79497 43.4939 6.92982 44.0483L5.33329 44.4331C5.25677 44.0482 5.04554 43.7032 4.73752 43.46C4.4295 43.2168 4.04489 43.0914 3.65273 43.1063C3.38007 43.0978 3.10898 43.1506 2.85944 43.2608C2.60991 43.371 2.38831 43.5359 2.21099 43.7432C1.84392 44.1854 1.6626 44.8532 1.6626 45.8041C1.6626 46.7549 1.84392 47.5333 2.20657 47.9578C2.37767 48.1662 2.59412 48.3327 2.83939 48.4446C3.08467 48.5565 3.35228 48.6109 3.62178 48.6035C4.0278 48.6115 4.42158 48.4644 4.72298 48.1922C5.07947 47.8365 5.31337 47.3764 5.39079 46.8788Z" fill="#00A651"/>
<path d="M19.8617 47.0291C19.6671 47.091 19.3575 47.1706 18.933 47.2635C18.6431 47.3054 18.3621 47.3951 18.1015 47.5288C18.0098 47.5859 17.934 47.6653 17.8814 47.7597C17.8288 47.8541 17.801 47.9603 17.8008 48.0684C17.8001 48.172 17.821 48.2747 17.8621 48.3699C17.9032 48.4651 17.9637 48.5506 18.0396 48.6212C18.1205 48.6991 18.2162 48.7599 18.3211 48.8002C18.4259 48.8404 18.5377 48.8593 18.6499 48.8556C18.9345 48.8524 19.2105 48.7578 19.4371 48.5858C19.6121 48.4612 19.7411 48.2825 19.8042 48.0772C19.8548 47.8285 19.8742 47.5745 19.8617 47.321V47.0291ZM17.8185 45.7864L16.4298 45.552C16.5432 45.0558 16.8283 44.6156 17.2347 44.3092C17.7455 44.0014 18.3378 43.8564 18.933 43.8935C19.4517 43.864 19.9707 43.947 20.4543 44.1368C20.744 44.2629 20.9857 44.4783 21.1442 44.7515C21.3156 45.1855 21.3867 45.6527 21.3521 46.118V47.8871C21.3443 48.2628 21.368 48.6386 21.4229 49.0104C21.485 49.2784 21.5785 49.5382 21.7015 49.7843H20.1846C20.1462 49.6811 20.0976 49.5337 20.0386 49.3421C20.0121 49.2536 19.9944 49.1917 19.9811 49.1607C19.7406 49.4025 19.4571 49.5975 19.1453 49.7357C18.8441 49.8618 18.5209 49.9264 18.1944 49.9258C17.6787 49.9537 17.1725 49.7792 16.7836 49.4394C16.6166 49.2814 16.4852 49.0897 16.3982 48.8769C16.3113 48.6641 16.2708 48.4352 16.2795 48.2055C16.2731 47.8945 16.3543 47.588 16.5139 47.321C16.6724 47.0776 16.8983 46.8856 17.164 46.7682C17.552 46.5953 17.9608 46.4734 18.3802 46.4055C18.8866 46.329 19.3843 46.2031 19.8661 46.0296V45.8792C19.8782 45.7657 19.8651 45.651 19.8276 45.5432C19.7901 45.4354 19.7293 45.3372 19.6494 45.2557C19.4051 45.0997 19.1151 45.0311 18.8268 45.0611C18.5992 45.0353 18.3702 45.0953 18.1845 45.2295C17.9989 45.3636 17.8699 45.5622 17.8229 45.7864H17.8185Z" fill="#00A651"/>
<path d="M32.4832 46.8168C32.4442 47.3271 32.5798 47.8355 32.868 48.2585C32.9819 48.3981 33.1256 48.5102 33.2887 48.5868C33.4517 48.6633 33.6299 48.7023 33.81 48.7008C33.9816 48.7008 34.1509 48.6608 34.3044 48.584C34.4579 48.5073 34.5915 48.3958 34.6945 48.2585C34.9662 47.8441 35.0908 47.3503 35.0483 46.8566C35.0798 46.3855 34.9504 45.9177 34.6812 45.5298C34.5773 45.3935 34.4435 45.2828 34.2902 45.2061C34.1369 45.1295 33.9681 45.0889 33.7967 45.0876C33.6184 45.0855 33.442 45.1242 33.281 45.2009C33.12 45.2776 32.9787 45.3901 32.868 45.5298C32.5874 45.8977 32.4506 46.3553 32.4832 46.8168ZM30.9707 44.0217H32.3948V44.8709C32.5851 44.5782 32.8429 44.3355 33.1466 44.1633C33.4674 43.9818 33.8306 43.8887 34.1991 43.8935C34.523 43.8896 34.8438 43.9569 35.1387 44.0906C35.4337 44.2244 35.6957 44.4213 35.9062 44.6674C36.4144 45.2883 36.6702 46.0778 36.6227 46.8787C36.6714 47.6919 36.4196 48.4946 35.9151 49.1342C35.7062 49.3863 35.4439 49.5889 35.1471 49.7274C34.8504 49.8658 34.5266 49.9366 34.1991 49.9347C33.8937 49.9392 33.5912 49.8742 33.3146 49.7445C33.0069 49.576 32.7314 49.3544 32.5009 49.0899V52H30.9707V44.0217Z" fill="#00A651"/>
<path d="M45.8486 49.8021V44.0218H47.3788V49.8021H45.8486ZM45.8486 43.2391V41.8239H47.3788V43.2391H45.8486Z" fill="#00A651"/>
<path d="M58.9167 44.0217V45.2423H57.8509V47.573C57.8403 47.849 57.8507 48.1255 57.8819 48.4C57.9032 48.4766 57.95 48.5437 58.0145 48.5901C58.0915 48.6419 58.1828 48.6682 58.2755 48.6653C58.4869 48.6501 58.6945 48.6008 58.8902 48.5194L59.0229 49.7046C58.6401 49.8621 58.2294 49.9404 57.8155 49.9346C57.5599 49.9373 57.3061 49.8908 57.0681 49.7975C56.8748 49.7253 56.705 49.6013 56.5772 49.4393C56.4673 49.2548 56.3951 49.0504 56.3649 48.8378C56.3235 48.4812 56.3073 48.1221 56.3163 47.7631V45.2423H55.6396V44.0217H56.3384V42.8984L57.873 42.0139V44.0526L58.9167 44.0217Z" fill="#00A651"/>
<path d="M73.6614 49.8019V41.8414H75.1916V49.8019H73.6614ZM70.6497 47.029C70.4507 47.0909 70.1411 47.1705 69.7166 47.2634C69.4267 47.3053 69.1457 47.395 68.8851 47.5287C68.7933 47.5858 68.7176 47.6652 68.665 47.7596C68.6124 47.854 68.5846 47.9602 68.5844 48.0683C68.5837 48.1719 68.6045 48.2746 68.6457 48.3698C68.6868 48.465 68.7472 48.5506 68.8232 48.6211C68.9041 48.699 68.9998 48.7598 69.1046 48.8001C69.2095 48.8403 69.3213 48.8592 69.4335 48.8555C69.7196 48.8533 69.9973 48.7586 70.2251 48.5857C70.3975 48.4595 70.5246 48.2812 70.5878 48.0771C70.6395 47.833 70.6603 47.5834 70.6497 47.3341V47.029ZM68.6021 45.7863L67.2134 45.5386C67.3268 45.0424 67.6119 44.6022 68.0183 44.2959C68.5305 43.9927 69.1228 43.8524 69.7166 43.8934C70.2367 43.8644 70.757 43.9473 71.2423 44.1367C71.5349 44.2617 71.7798 44.4771 71.9411 44.7514C72.1141 45.185 72.1853 45.6525 72.1489 46.1179V47.887C72.1412 48.2627 72.1649 48.6385 72.2197 49.0103C72.2819 49.2783 72.3754 49.5381 72.4983 49.7842H70.9858C70.9445 49.681 70.8959 49.5336 70.8399 49.342L70.7868 49.1606C70.5447 49.4026 70.2598 49.5975 69.9465 49.7356C69.6454 49.8617 69.3221 49.9263 68.9957 49.9257C68.48 49.9536 67.9738 49.7791 67.5849 49.4393C67.4174 49.2831 67.285 49.0932 67.1966 48.8819C67.1081 48.6707 67.0656 48.4431 67.0719 48.2142C67.0655 47.9032 67.1468 47.5967 67.3063 47.3297C67.4626 47.0753 67.6902 46.8723 67.9608 46.7459C68.3502 46.5725 68.7605 46.4506 69.1814 46.3833C69.6876 46.3056 70.1852 46.1797 70.6674 46.0074V45.857C70.6789 45.7432 70.6651 45.6282 70.6268 45.5204C70.5886 45.4126 70.5269 45.3146 70.4463 45.2334C70.2036 45.0775 69.915 45.0089 69.6281 45.0389C69.4041 45.0267 69.1817 45.0838 68.9913 45.2025C68.8001 45.3483 68.6632 45.5537 68.6021 45.7863Z" fill="#00A651"/>
<path d="M41.4519 9.66763V25.7125C41.4511 26.0792 41.378 26.4422 41.2369 26.7806C41.0957 27.1191 40.8893 27.4264 40.6293 27.685C40.099 28.2078 39.3838 28.5003 38.6391 28.4987H37.392C36.7378 28.5004 36.1097 28.2428 35.6451 27.7823C35.4143 27.5566 35.2311 27.2869 35.1065 26.9891C34.9819 26.6913 34.9184 26.3715 34.9198 26.0486V7.23967H20.352C16.9997 7.23967 14.2843 9.83569 14.2843 13.0376V28.4501H9.60086C9.32582 28.4519 9.05285 28.4024 8.79597 28.3041C8.54092 28.2026 8.30809 28.0524 8.11048 27.8619C7.91585 27.6692 7.76132 27.4398 7.65581 27.187C7.5503 26.9342 7.49589 26.6631 7.49574 26.3892V13.1216H14.0676V7.23967H7.49574V3.57782L0.530273 0V28.3041C0.530273 31.4441 3.18379 33.9871 6.47856 33.9871H21.1436V15.3063C21.1441 14.9738 21.2102 14.6447 21.3382 14.3378C21.4695 14.0304 21.6587 13.7511 21.8955 13.5152C22.1325 13.28 22.4135 13.0936 22.7225 12.9668C23.0343 12.8402 23.3678 12.7756 23.7043 12.7767H27.5961V27.7381C27.5961 31.0417 30.3513 33.7438 33.8451 33.965C33.9999 33.965 34.1547 33.965 34.3139 33.965H34.9021H41.6774C41.7258 33.9714 41.7749 33.9714 41.8234 33.965C43.5648 33.8104 45.1841 33.0055 46.3586 31.7105C47.5331 30.4155 48.1766 28.7256 48.1608 26.9774V7.23967L41.4519 9.66763Z" fill="white"/>
<path d="M70.8003 22.8601C70.5349 20.0031 67.2844 17.7521 63.3881 17.7521H57.4089C56.7469 17.7515 56.1117 17.4911 55.6399 17.0268C55.404 16.7965 55.2165 16.5214 55.0885 16.2176C54.9605 15.9138 54.8946 15.5874 54.8946 15.2578C54.8946 14.9281 54.9605 14.6018 55.0885 14.298C55.2165 13.9942 55.404 13.719 55.6399 13.4888C56.1117 13.0245 56.7469 12.764 57.4089 12.7635H61.6501L62.8176 11.7596L68.0583 7.2309H56.0821C52.3274 7.2309 49.2803 9.52618 49.2803 12.361V18.1324C49.381 19.6671 50.0644 21.1053 51.1908 22.1525C52.3233 23.2039 53.8115 23.7884 55.3568 23.7888H62.9282C63.5573 23.7889 64.161 24.0368 64.6087 24.4787C64.8286 24.6963 65.0031 24.9553 65.1222 25.2407C65.2413 25.5261 65.3026 25.8323 65.3026 26.1416C65.3026 26.4509 65.2413 26.7571 65.1222 27.0425C65.0031 27.3279 64.8286 27.5869 64.6087 27.8045C64.161 28.2464 63.5573 28.4943 62.9282 28.4944H46.8877V33.9783H64.4009C65.9451 33.9732 67.437 33.4185 68.6095 32.4137C69.7821 31.4089 70.5587 30.0195 70.8003 28.4944V23.2625C70.8003 23.1299 70.8003 22.9972 70.8003 22.8645" fill="white"/>
<path d="M77.1244 3.58669V7.46524H74.5284L71.6803 13.0022H77.173L77.2394 26.4998C77.2429 26.791 77.1872 27.0799 77.0757 27.3489C76.9115 27.764 76.6254 28.1196 76.2552 28.3691C75.885 28.6185 75.448 28.7501 75.0016 28.7464H70.2031V34.2303H77.204C79.0161 34.2353 80.7561 33.5211 82.0422 32.2446C82.6791 31.6132 83.1842 30.8616 83.5282 30.0334C83.8753 29.2058 84.0528 28.317 84.05 27.4197V0.159241L77.1244 3.58669Z" fill="white"/>
<path d="M60.7783 15.6247L75.6557 2.65344L68.217 16.4694L66.6691 13.6301L60.7783 15.6247Z" fill="#00A651"/>
</g>
<defs>
<clipPath id="clip0_2173_8476">
<rect width="84.0456" height="52" fill="white"/>
</clipPath>
</defs>
</svg>
